# Aspose.3D Wavefront OBJ Exporter
# Copyright 2004-2023 Aspose Pty Ltd.
# File created: 06/04/2023 16:57:24

mtllib material.lib

#
# object PineTree
#

v 0.07875585556030273 4.9810867309570312 1.41664075851440432
v 0.07875585556030273 0.51921844482421872 1.41664075851440432
v 0.07875573635101318 0.51921844482421872 -1.41664075851440432
v 0.07875573635101318 4.9810867309570312 -1.41664075851440432
v -0.01353773288428783 1.52522826194763184 0.02188939973711967
v -0.09237504005432128 0 0.05333274602890015
v 0.09237504005432128 0 0.05333274602890015
v 0.1084883064031601 1.52522826194763184 0.02188939973711967
v 0.04747527092695236 1.52522826194763184 -0.08378827571868896
v 0.04177824780344963 3.05045652389526367 2.110997954218874E-08
v 0.1084883064031601 1.52522826194763184 0.02188939973711967
v 0.04747527092695236 1.52522826194763184 -0.08378827571868896
v -1.7748961411712116E-08 0 -0.10666555166244506
v -0.09237504005432128 0 0.05333274602890015
v -0.01353773288428783 1.52522826194763184 0.02188939973711967
v 0.1084883064031601 1.52522826194763184 0.02188939973711967
v 0.04177824780344963 3.05045652389526367 2.110997954218874E-08
v -0.01353773288428783 1.52522826194763184 0.02188939973711967
v -1.33788490295410156 4.9810867309570312 -0
v -1.33788490295410156 0.51921820640563968 -0
v 1.49539649486541752 0.51921820640563968 -0
v 1.49539649486541752 4.9810867309570312 -0
v 0.1084883064031601 1.52522826194763184 0.02188939973711967
v 0.09237504005432128 0 0.05333274602890015
v -1.7748961411712116E-08 0 -0.10666555166244506
v 0.04747527092695236 1.52522826194763184 -0.08378827571868896
v -0.01353773288428783 1.52522826194763184 0.02188939973711967
v 0.04177824780344963 3.05045652389526367 2.110997954218874E-08
v 0.04747527092695236 1.52522826194763184 -0.08378827571868896
v -1.7748961411712116E-08 0 -0.10666555166244506
v 0.09237504005432128 0 0.05333274602890015
v -0.09237504005432128 0 0.05333274602890015
# 32 vertices

vn 1 0 -4.2074635331346144E-08
vn 1 0 -4.2074635331346144E-08
vn 1 0 -4.2074635331346144E-08
vn 1 0 -4.2074635331346144E-08
vn 0 0.02061112225055694 0.99978756904602048
vn 0 0.02061112225055694 0.99978756904602048
vn 0 0.02061112225055694 0.99978756904602048
vn 0 0.02061112225055694 0.99978756904602048
vn 0.86561757326126096 0.03068777173757553 -0.4997645020484924
vn 0.86561757326126096 0.03068777173757553 -0.4997645020484924
vn 0.86561757326126096 0.03068777173757553 -0.4997645020484924
vn -0.86551189422607424 0.0344356894493103 -0.49970331788063048
vn -0.86551189422607424 0.0344356894493103 -0.49970331788063048
vn -0.86551189422607424 0.0344356894493103 -0.49970331788063048
vn -0.86551189422607424 0.0344356894493103 -0.49970331788063048
vn 0 0.01435006503015756 0.99989706277847296
vn 0 0.01435006503015756 0.99989706277847296
vn 0 0.01435006503015756 0.99989706277847296
vn 0 0 1
vn 0 0 1
vn 0 0 1
vn 0 0 1
vn 0.86586153507232672 -0.01945318840444088 -0.49990537762641904
vn 0.86586153507232672 -0.01945318840444088 -0.49990537762641904
vn 0.86586153507232672 -0.01945318840444088 -0.49990537762641904
vn 0.86586153507232672 -0.01945318840444088 -0.49990537762641904
vn -0.86577135324478144 0.02422556467354297 -0.49985304474830624
vn -0.86577135324478144 0.02422556467354297 -0.49985304474830624
vn -0.86577135324478144 0.02422556467354297 -0.49985304474830624
vn 0 -1 0
vn 0 -1 0
vn 0 -1 0
# 32 vertex normals

vt 0.01150208711624145 -0.00217717885971069 0
vt 0.0115019679069519 -0.88136541843414304 0
vt 0.98849779367446896 -0.88136547803878784 0
vt 0.98849767446517952 -0.00217723846435546 0
vt 0.4520738124847412 -0.71287190914154056 0
vt 0.44357466697692872 -0.9980024099349976 0
vt 0.50405371189117432 -0.99648278951644896 0
vt 0.49046993255615232 -0.71452564001083376 0
vt 0.45454767346382144 -0.71339303255081176 0
vt 0.477390855550766 -0.42767208814620968 0
vt 0.49453216791152952 -0.71339297294616696 0
vt 0.45420604944229128 -0.71183669567108152 0
vt 0.44186592102050784 -0.996719479560852 0
vt 0.5023620128631592 -0.9980024695396424 0
vt 0.49416306614875792 -0.71268415451049808 0
vt 0.49046993255615232 -0.71452564001083376 0
vt 0.47612896561622616 -0.43239068984985352 0
vt 0.4520738124847412 -0.71287190914154056 0
vt 0.01058918237686157 -0.00311756134033203 0
vt 0.01058894395828247 -0.88394886255264288 0
vt 0.9894109964370728 -0.88394898176193232 0
vt 0.98941123485565184 -0.00311768054962158 0
vt 0.49453216791152952 -0.71339297294616696 0
vt 0.50081515312194824 -0.99903225898742672 0
vt 0.44027745723724368 -0.99903225898742672 0
vt 0.45454767346382144 -0.71339303255081176 0
vt 0.49416306614875792 -0.71268415451049808 0
vt 0.4771389961242676 -0.42864710092544552 0
vt 0.45420604944229128 -0.71183669567108152 0
vt 0.49010854959487912 -0.99759292602539056 0
vt 0.49010854959487912 -0.96300011873245232 0
vt 0.43768158555030824 -0.9802964925765992 0
# 32 texture coords

g PineTree
usemtl pine_tree
s 1
f 1/1/1 2/2/2 3/3/3
f 1/1/1 3/3/3 4/4/4
f 5/5/5 6/6/6 7/7/7
f 5/5/5 7/7/7 8/8/8
f 9/9/9 10/10/10 11/11/11
f 12/12/12 13/13/13 14/14/14
f 12/12/12 14/14/14 15/15/15
f 16/16/16 17/17/17 18/18/18
f 19/19/19 20/20/20 21/21/21
f 19/19/19 21/21/21 22/22/22
f 23/23/23 24/24/24 25/25/25
f 23/23/23 25/25/25 26/26/26
f 27/27/27 28/28/28 29/29/29
f 30/30/30 31/31/31 32/32/32
#14 polygons

